<svg width="120" height="71" viewBox="0 0 120 71" fill="none" xmlns="http://www.w3.org/2000/svg">
<mask id="path-1-inside-1_1714_3855" fill="white">
<path d="M87.2841 44.0277L88.1671 38.5875C88.2293 38.2044 88.2603 38.0129 88.1525 37.9416C88.0446 37.8703 87.8798 37.9745 87.5503 38.1829C79.3146 43.391 68.7154 47.4723 59.0149 47.3308C48.3988 47.1759 36.2329 43.3664 27.7637 35.3675C27.7428 35.3478 27.7324 35.338 27.7231 35.3273C27.6804 35.2786 27.6543 35.2165 27.6495 35.1519C27.6485 35.1378 27.6488 35.1232 27.6493 35.094C27.6519 34.9652 27.6532 34.9009 27.6636 34.8638C27.7149 34.6824 27.9125 34.5932 28.0824 34.675C28.1171 34.6916 28.1673 34.7343 28.2678 34.8196C37.0901 42.3052 49.4357 45.2698 59.1193 45.411C68.2241 45.5438 77.2099 41.3442 85.9712 36.8245C86.4403 36.5825 86.6749 36.4614 86.649 36.3162C86.623 36.1709 86.3609 36.1386 85.8366 36.0739H85.8365L80.9418 35.4704C80.4185 35.4059 80.0636 34.927 80.149 34.4008C80.2344 33.8745 80.7278 33.5002 81.2511 33.5647L89.778 34.6161C90.3013 34.6806 90.6562 35.1595 90.5708 35.6858L89.179 44.2614C89.0936 44.7876 88.6002 45.1619 88.0769 45.0974C87.5537 45.0329 87.1987 44.554 87.2841 44.0277Z"/>
</mask>
<path d="M88.1671 38.5875L82.2446 37.6263L82.2446 37.6263L88.1671 38.5875ZM87.2841 44.0277L93.2066 44.989L93.2066 44.989L87.2841 44.0277ZM88.0769 45.0974L88.8112 39.1425L88.8111 39.1425L88.0769 45.0974ZM89.179 44.2614L95.1015 45.2226V45.2226L89.179 44.2614ZM90.5708 35.6858L84.6483 34.7245L84.6483 34.7246L90.5708 35.6858ZM89.778 34.6161L89.0438 40.571L89.0438 40.571L89.778 34.6161ZM81.2511 33.5647L81.9853 27.6098H81.9853L81.2511 33.5647ZM80.149 34.4008L86.0715 35.362L86.0715 35.362L80.149 34.4008ZM80.9418 35.4704L80.2075 41.4253L80.2075 41.4253L80.9418 35.4704ZM85.8365 36.0739L85.1023 42.0289L85.468 42.0739L85.8365 42.0739V36.0739ZM85.9712 36.8245L83.2205 31.4922L83.2204 31.4922L85.9712 36.8245ZM59.1193 45.411L59.2068 39.4117L59.1193 45.411ZM28.2678 34.8196L24.3859 39.3946L24.3859 39.3946L28.2678 34.8196ZM27.7637 35.3675L31.8835 31.0055L31.8835 31.0055L27.7637 35.3675ZM59.0149 47.3308L59.1025 41.3314L59.0149 47.3308ZM87.5503 38.1829L84.3434 33.1118L87.5503 38.1829ZM27.6493 35.094L33.6482 35.2133L33.6482 35.2133L27.6493 35.094ZM27.6495 35.1519L21.6662 35.5988L21.6662 35.5988L27.6495 35.1519ZM27.7231 35.3273L23.2104 39.2815L23.2104 39.2815L27.7231 35.3273ZM28.0824 34.675L30.6832 29.2679L30.6832 29.2679L28.0824 34.675ZM27.6636 34.8638L21.8894 33.2336L21.8894 33.2336L27.6636 34.8638ZM85.8366 36.0739L86.5709 30.1191L86.2051 30.074L85.8366 30.0739V36.0739ZM86.649 36.3162L80.7425 37.3713L80.7425 37.3714L86.649 36.3162ZM88.1525 37.9416L84.8447 42.9475L84.8449 42.9476L88.1525 37.9416ZM82.2446 37.6263L81.3616 43.0665L93.2066 44.989L94.0896 39.5487L82.2446 37.6263ZM81.3616 43.0665C80.7416 46.8863 83.3753 50.5631 87.3427 51.0523L88.8111 39.1425C91.732 39.5026 93.6558 42.2216 93.2066 44.989L81.3616 43.0665ZM87.3426 51.0523C91.1251 51.5187 94.5091 48.8728 95.1015 45.2226L83.2565 43.3001C83.6781 40.7025 86.0752 38.8051 88.8112 39.1425L87.3426 51.0523ZM95.1015 45.2226L96.4933 36.647L84.6483 34.7246L83.2565 43.3002L95.1015 45.2226ZM96.4933 36.647C97.1133 32.8272 94.4797 29.1504 90.5123 28.6612L89.0438 40.571C86.1229 40.2109 84.1992 37.4918 84.6483 34.7245L96.4933 36.647ZM90.5123 28.6612L81.9853 27.6098L80.5168 39.5196L89.0438 40.571L90.5123 28.6612ZM81.9853 27.6098C78.2029 27.1434 74.8189 29.7894 74.2265 33.4395L86.0715 35.362C85.6499 37.9597 83.2528 39.857 80.5168 39.5196L81.9853 27.6098ZM74.2265 33.4395C73.6065 37.2594 76.2402 40.9361 80.2075 41.4253L81.6761 29.5155C84.5968 29.8757 86.5207 32.5946 86.0715 35.362L74.2265 33.4395ZM80.2075 41.4253L85.1023 42.0289L86.5708 30.119L81.676 29.5155L80.2075 41.4253ZM83.2204 31.4922C74.3349 36.076 66.6103 39.5197 59.2068 39.4117L59.0318 51.4104C69.8379 51.568 80.0849 46.6124 88.722 42.1567L83.2204 31.4922ZM59.2068 39.4117C50.4118 39.2834 39.5816 36.5504 32.1497 30.2445L24.3859 39.3946C34.5985 48.0599 48.4597 51.2562 59.0318 51.4104L59.2068 39.4117ZM23.6439 39.7295C33.4262 48.9687 47.1447 53.1583 58.9274 53.3301L59.1025 41.3314C49.6529 41.1936 39.0395 37.7642 31.8835 31.0055L23.6439 39.7295ZM58.9274 53.3301C70.1841 53.4943 81.93 48.8362 90.7572 43.254L84.3434 33.1118C76.6993 37.9458 67.2467 41.4502 59.1025 41.3314L58.9274 53.3301ZM21.6505 34.9748C21.6504 34.979 21.6501 34.9973 21.6498 35.0162C21.6494 35.0357 21.6489 35.0735 21.6488 35.12C21.6487 35.2187 21.6505 35.3886 21.6662 35.5988L33.6329 34.7051C33.6475 34.9011 33.6489 35.0567 33.6488 35.1373C33.6488 35.1747 33.6483 35.2026 33.6482 35.2106C33.6481 35.2182 33.6479 35.2237 33.6482 35.2133L21.6505 34.9748ZM31.8835 31.0055C31.876 30.9984 31.8802 31.0024 31.8859 31.0078C31.892 31.0136 31.9126 31.0332 31.9397 31.0598C31.9988 31.1177 32.1077 31.227 32.2357 31.3731L23.2104 39.2815C23.3477 39.4383 23.4666 39.5578 23.5384 39.6283C23.5719 39.6611 23.5996 39.6875 23.6138 39.701C23.6276 39.7142 23.641 39.7268 23.6439 39.7295L31.8835 31.0055ZM21.6662 35.5988C21.7679 36.961 22.3101 38.2541 23.2104 39.2815L32.2357 31.3731C33.0507 32.3032 33.5408 33.472 33.6329 34.7051L21.6662 35.5988ZM32.1497 30.2445C32.1316 30.2291 32.0062 30.1217 31.8825 30.0235C31.8238 29.9768 31.3534 29.5903 30.6832 29.2679L25.4816 40.082C25.1187 39.9074 24.8517 39.7325 24.7116 39.6361C24.5658 39.5358 24.4599 39.4526 24.4184 39.4196C24.3536 39.3681 24.3036 39.3247 24.3859 39.3946L32.1497 30.2445ZM33.6482 35.2133C33.6503 35.1061 33.6497 35.1757 33.6452 35.2613C33.6422 35.3165 33.6343 35.4525 33.6125 35.6298C33.5913 35.8019 33.5454 36.1133 33.4379 36.494L21.8894 33.2336C21.6892 33.9427 21.6664 34.543 21.6619 34.6277C21.6535 34.787 21.651 34.9531 21.6505 34.9748L33.6482 35.2133ZM30.6832 29.2679C27.1545 27.5706 22.9532 29.4652 21.8894 33.2336L33.4379 36.494C32.4765 39.8995 28.6705 41.6158 25.4816 40.082L30.6832 29.2679ZM85.8365 42.0739H85.8366V30.0739H85.8365V42.0739ZM85.1023 42.0288C85.5507 42.0841 85.2749 42.0626 84.9443 41.9781C84.7735 41.9344 84.0465 41.7492 83.2387 41.2065C82.2532 40.5444 81.0849 39.288 80.7425 37.3713L92.5554 35.2611C92.2001 33.2717 90.9892 31.9569 89.9309 31.2458C89.0503 30.6542 88.2201 30.4296 87.915 30.3516C87.3157 30.1985 86.6467 30.1284 86.5709 30.1191L85.1023 42.0288ZM88.722 42.1567C88.7897 42.1218 89.3932 41.8244 89.9026 41.473C90.162 41.2941 90.8632 40.7957 91.4845 39.9352C92.2312 38.901 92.9106 37.2487 92.5554 35.261L80.7425 37.3714C80.4003 35.4563 81.0601 33.8736 81.7555 32.9105C82.3254 32.1211 82.9435 31.6953 83.0889 31.5951C83.3702 31.401 83.6219 31.2851 83.2205 31.4922L88.722 42.1567ZM94.0896 39.5487C94.1015 39.4756 94.1286 39.3106 94.1509 39.1477C94.1713 38.9982 94.2145 38.6662 94.2224 38.2656C94.2314 37.8046 94.2824 34.8004 91.4601 32.9357L84.8449 42.9476C83.5923 42.12 82.8641 40.9611 82.515 39.9104C82.2183 39.0174 82.2197 38.2852 82.2247 38.0297C82.2331 37.6042 82.3078 37.2366 82.2446 37.6263L94.0896 39.5487ZM90.7572 43.254C91.0909 43.043 90.7845 43.2542 90.3989 43.4279C90.1679 43.532 89.4967 43.8204 88.5608 43.8989C87.4596 43.9913 86.1033 43.7792 84.8447 42.9475L91.4602 32.9357C88.6305 31.066 85.8796 32.3024 85.4701 32.4869C85.1059 32.6509 84.8181 32.8205 84.6887 32.8979C84.5477 32.9822 84.4066 33.0719 84.3434 33.1118L90.7572 43.254Z" fill="black" mask="url(#path-1-inside-1_1714_3855)"/>
<path d="M35.2617 8.69629C35.4411 8.69629 35.6067 8.79234 35.6957 8.948L39.7343 16.0071C39.9254 16.3411 40.4063 16.3431 40.6002 16.0107L44.7214 8.94439C44.811 8.79076 44.9754 8.69629 45.1533 8.69629H49.9043C50.2956 8.69629 50.5352 9.12535 50.3301 9.45848L43.6171 20.3586C43.518 20.5195 43.5181 20.7226 43.6173 20.8834L50.62 32.2324C50.8256 32.5655 50.5859 32.995 50.1945 32.995H45.4435C45.2661 32.995 45.102 32.901 45.0122 32.7479L40.6626 25.3314C40.4694 25.002 39.9932 25.002 39.8 25.3314L35.4503 32.7479C35.3606 32.901 35.1964 32.995 35.019 32.995H30.2443C29.8531 32.995 29.6135 32.5661 29.8184 32.233L36.8013 20.8828C36.9 20.7223 36.9001 20.5198 36.8015 20.3592L30.1083 9.45791C29.9038 9.12476 30.1435 8.69629 30.5344 8.69629H35.2617Z" fill="black"/>
<path d="M66.2872 8.55436V10.7065V12.8805H52.1777L53.9712 10.7065L52.1777 8.55436H66.2872ZM57.1658 3.26123H62.2309V26.1206C62.2309 26.8476 62.329 27.4075 62.5252 27.8001C62.7353 28.1782 63.0226 28.4327 63.3869 28.5635C63.7512 28.6944 64.1785 28.7598 64.6689 28.7598C65.0192 28.7598 65.3555 28.738 65.6777 28.6944C66 28.6508 66.2592 28.6072 66.4554 28.5635L66.4764 32.577C66.056 32.7079 65.5656 32.8242 65.0052 32.926C64.4587 33.0278 63.8282 33.0787 63.1136 33.0787C61.9507 33.0787 60.9209 32.8678 60.0241 32.4461C59.1274 32.0099 58.4268 31.3046 57.9224 30.3303C57.418 29.356 57.1658 28.0618 57.1658 26.4477V3.26123Z" fill="black"/>
<path fill-rule="evenodd" clip-rule="evenodd" d="M66.3009 7.24069L69.5257 10.2465C69.6978 10.431 69.6964 10.7287 69.5225 10.9115L66.2681 13.8906C66.0278 14.0828 65.6449 14.0828 65.6449 13.8906C65.6449 13.554 65.6417 13.4031 65.6449 13.2405L65.6459 10.7203L65.6711 7.90271C65.6711 7.59785 65.6461 7.24074 65.7337 7.10952C65.9076 6.92671 66.1288 7.05624 66.3009 7.24069Z" fill="black"/>
<path d="M100.008 20.7949V20.3092C100.008 18.6623 100.233 17.135 100.683 15.7274C101.134 14.3057 101.783 13.074 102.631 12.0324C103.492 10.9767 104.539 10.1602 105.771 9.5831C107.016 8.99189 108.42 8.69629 109.984 8.69629C111.56 8.69629 112.965 8.99189 114.197 9.5831C115.442 10.1602 116.495 10.9767 117.356 12.0324C118.218 13.074 118.873 14.3057 119.324 15.7274C119.774 17.135 119.999 18.6623 119.999 20.3092V20.7949C119.999 22.4418 119.774 23.9691 119.324 25.3767C118.873 26.7843 118.218 28.016 117.356 29.0717C116.495 30.1134 115.449 30.9298 114.217 31.521C112.985 32.0981 111.587 32.3867 110.024 32.3867C108.447 32.3867 107.036 32.0981 105.791 31.521C104.559 30.9298 103.512 30.1134 102.651 29.0717C101.79 28.016 101.134 26.7843 100.683 25.3767C100.233 23.9691 100.008 22.4418 100.008 20.7949ZM104.797 20.3092V20.7949C104.797 21.8224 104.896 22.7937 105.095 23.7087C105.294 24.6236 105.605 25.426 106.029 26.1157C106.453 26.8055 106.996 27.3474 107.659 27.7415C108.321 28.1357 109.109 28.3327 110.024 28.3327C110.911 28.3327 111.68 28.1357 112.329 27.7415C112.991 27.3474 113.534 26.8055 113.958 26.1157C114.382 25.426 114.694 24.6236 114.892 23.7087C115.104 22.7937 115.21 21.8224 115.21 20.7949V20.3092C115.21 19.2957 115.104 18.3386 114.892 17.4377C114.694 16.5227 114.376 15.7133 113.938 15.0095C113.514 14.3057 112.971 13.7567 112.309 13.3626C111.66 12.9544 110.885 12.7503 109.984 12.7503C109.083 12.7503 108.301 12.9544 107.639 13.3626C106.99 13.7567 106.453 14.3057 106.029 15.0095C105.605 15.7133 105.294 16.5227 105.095 17.4377C104.896 18.3386 104.797 19.2957 104.797 20.3092Z" fill="black"/>
<path d="M91.933 11.2761C91.684 10.4693 91.3404 9.74724 90.9021 9.10979C90.4739 8.46238 89.9559 7.90959 89.3484 7.45143C88.7508 6.99326 88.0635 6.64964 87.2866 6.42056C86.5097 6.18152 85.6631 6.06199 84.7468 6.06199C83.1034 6.06199 81.6392 6.47534 80.3544 7.30203C79.0695 8.12872 78.0586 9.34385 77.3215 10.9474C76.5944 12.541 76.2309 14.4833 76.2309 16.7741C76.2309 19.0848 76.5944 21.042 77.3215 22.6456C78.0486 24.2492 79.0596 25.4693 80.3544 26.3059C81.6492 27.1326 83.1532 27.546 84.8663 27.546C86.4201 27.546 87.7647 27.2472 88.9002 26.6496C90.0456 26.0519 90.927 25.2053 91.5446 24.1097C92.1621 23.0042 92.4709 21.7093 92.4709 20.2253L93.7258 20.4195H85.4191V16.0869H97.8344V19.7621C97.8344 22.3816 97.2766 24.6476 96.1611 26.5599C95.0455 28.4723 93.5117 29.9464 91.5595 30.9822C89.6073 32.0081 87.3663 32.521 84.8364 32.521C82.0177 32.521 79.5426 31.8886 77.4112 30.6236C75.2897 29.3487 73.6313 27.541 72.4361 25.2004C71.2508 22.8498 70.6582 20.0609 70.6582 16.8339C70.6582 14.3637 71.0068 12.1576 71.704 10.2154C72.4112 8.27314 73.3972 6.62474 74.6622 5.27016C75.9271 3.90563 77.4112 2.86978 79.1143 2.16261C80.8175 1.44548 82.6701 1.08691 84.6721 1.08691C86.3653 1.08691 87.944 1.33592 89.4081 1.83392C90.8723 2.32197 92.1721 3.01918 93.3075 3.92555C94.4529 4.83192 95.3942 5.90761 96.1312 7.15263C96.8683 8.39764 97.3513 9.77214 97.5804 11.2761H91.933Z" fill="black"/>
<path d="M27.1762 0V33.07H21.8475L6.26521 10.5443H5.99071V33.07H0V0H5.36096L20.9271 22.5419H21.2178V0H27.1762Z" fill="black"/>
</svg>
